<?xml version="1.0" standalone="no"?>
<!DOCTYPE svg PUBLIC "-//W3C//DTD SVG 20010904//EN"
 "http://www.w3.org/TR/2001/REC-SVG-20010904/DTD/svg10.dtd">
<svg version="1.0" xmlns="http://www.w3.org/2000/svg"
 width="500.000000pt" height="500.000000pt" viewBox="0 0 500.000000 500.000000"
 preserveAspectRatio="xMidYMid meet">
<metadata>
Created by potrace 1.14, written by Peter Selinger 2001-2017
</metadata>
<g transform="translate(0.000000,500.000000) scale(0.100000,-0.100000)"
fill="#000000" stroke="none">
<path d="M2250 4989 c-160 -19 -177 -22 -325 -55 -11 -2 -31 -6 -45 -9 -55
-10 -278 -87 -373 -129 -120 -52 -208 -99 -332 -175 -255 -157 -511 -393 -682
-629 -35 -48 -66 -91 -71 -97 -13 -17 -92 -146 -92 -150 0 -2 -13 -26 -28 -52
-114 -193 -233 -536 -268 -773 -3 -19 -7 -46 -10 -60 -26 -148 -26 -576 0
-720 3 -14 7 -42 10 -63 19 -123 81 -348 133 -482 262 -670 800 -1196 1477
-1446 76 -29 225 -73 276 -83 14 -2 45 -9 70 -15 65 -15 131 -25 265 -41 70
-9 487 -6 535 3 14 3 47 8 73 12 27 4 59 8 70 11 12 2 36 7 52 10 212 37 537
155 708 256 26 15 50 28 53 28 13 0 242 157 322 221 226 180 466 460 599 699
73 130 87 160 138 279 70 165 136 388 161 548 3 19 7 45 9 56 13 67 20 187 20
362 0 249 -13 375 -55 556 -6 26 -13 53 -14 60 -22 114 -104 335 -187 502 -41
84 -70 134 -162 282 -71 114 -251 324 -382 446 -285 263 -702 493 -1041 574
-11 3 -46 11 -79 20 -33 8 -73 17 -90 20 -16 2 -46 7 -65 11 -163 29 -523 42
-670 23z m874 -1615 c339 -339 616 -618 616 -620 0 -2 -504 -4 -1120 -4
l-1120 0 0 250 0 250 500 0 500 0 0 370 c0 204 2 370 4 370 2 0 281 -277 620
-616z m376 -1374 l0 -250 -500 0 -500 0 -2 -371 -3 -372 -617 617 c-340 340
-618 620 -618 622 0 2 504 4 1120 4 l1120 0 0 -250z"/>
</g>
</svg>
